P1
# This is an example bitmap of the letter "J"
# Connor comments
#changed the "j" to upper case
6 10
0 1 1 1 1 1
0 0 0 0 1 0
0 0 0 0 1 0
0 0 0 0 1 0
0 0 0 0 1 0
0 0 0 0 1 0
1 0 0 0 1 0
0 1 1 1 0 0
0 0 0 0 0 0
0 0 0 0 0 0
