P1
# This is an example bitmap of the letter "H"
6 10
0 1 0 0 1 0 
0 1 0 0 1 0  
0 1 0 0 1 0 
0 1 0 0 1 0 
0 1 1 1 1 0 
0 1 0 0 1 0 
0 1 0 0 1 0 
0 1 0 0 1 0 
0 1 0 0 1 0 
0 0 0 0 0 0
# my comment goes here





# push try3 Pawel
# Kamil B00344208

# TC-push https://www.youtube.com/watch?v=dQw4w9WgXcQ